<?xml version="1.0" encoding="utf-8"?>
<!-- Generator: Adobe Illustrator 24.0.1, SVG Export Plug-In . SVG Version: 6.00 Build 0)  -->
<svg version="1.1" id="Layer_1" xmlns="http://www.w3.org/2000/svg" xmlns:xlink="http://www.w3.org/1999/xlink" x="0px" y="0px"
	 viewBox="0 0 209.76 65.2" style="enable-background:new 0 0 209.76 65.2;" xml:space="preserve">
<style type="text/css">
	.st0{fill:#265F90;}
	.st1{fill:#FFFFFF;}
	.st2{fill:#E13046;}
</style>
<g>
	<g>
		<g>
			<g>
				<g>
					<path class="st0" d="M134.14,32.33L134.14,32.33c0-0.29-0.07-0.74-0.15-1.25c-0.07-0.81-0.29-1.69-0.51-2.5
						c-1.91-6.03-7.06-9.92-13.09-9.92c-0.59,0-1.25,0.07-1.84,0.15c-7.72,1.03-13.01,8.01-11.98,15.95
						c0.96,7.2,6.69,12.13,13.75,12.13c0.59,0,1.25-0.07,1.84-0.15c3.75-0.44,7.06-2.06,9.56-5.15c0.15-0.15,0.22-0.37,0.15-0.59
						c0-0.15-0.15-0.37-0.29-0.52c-0.44-0.29-1.91-1.03-2.72-1.4c-0.22-0.15-0.44-0.22-0.51-0.29c-0.22-0.15-0.44-0.15-0.59-0.15
						c-0.22,0-0.37,0.07-0.59,0.3c-1.62,1.84-3.6,2.79-5.66,3.09c-0.44,0.07-0.81,0.07-1.18,0.07c-3.75,0-7.57-2.5-8.68-5.95v-0.07
						l0.07-0.07c0.22-0.07,1.99-0.88,4.56-0.88c0.29,0,0.66,0,0.96,0.07c0.73,0.07,1.47,0.15,2.28,0.22
						c1.47,0.22,2.94,0.37,4.78,0.37c1.1,0,2.13-0.07,3.23-0.22c4.26-0.81,6.03-2.06,6.03-2.06
						C134.22,33.21,134.14,32.92,134.14,32.33 M129.29,30.57c-0.74,0.22-1.69,0.44-2.87,0.59c-0.59,0.07-1.18,0.15-1.98,0.15
						c-1.25,0-2.65-0.07-3.9-0.22h-0.07c-1.25-0.07-2.35-0.15-3.46-0.15c-0.81,0-1.54,0.07-2.21,0.15
						c-2.06,0.22-3.67,0.88-3.67,0.88v-0.15c0.37-4.12,3.9-7.72,8.09-8.23c0.37-0.07,0.81-0.07,1.18-0.07
						c3.97,0,7.79,3.01,8.97,6.98v0.07H129.29z"/>
					<g>
						<path class="st0" d="M201.49,20.27c0-0.37-0.29-0.66-0.66-0.66h-3.53c-0.37,0-0.66,0.29-0.66,0.66v25.29
							c0,0.37,0.29,0.66,0.66,0.66h3.53c0.37,0,0.66-0.29,0.66-0.66V20.27z"/>
						<path class="st0" d="M199.06,10.57c-1.76,0-3.24,1.47-3.24,3.24c0,1.76,1.47,3.23,3.24,3.23s3.23-1.47,3.23-3.23
							C202.23,12.04,200.83,10.57,199.06,10.57"/>
					</g>
					<path class="st0" d="M151.79,46.89c0.22,0,0.44,0,0.66,0c3.68,0,7.06-1.4,9.56-3.97c2.57-2.57,3.97-6.18,3.97-10
						c0-8.01-6.18-14.26-14.04-14.26c-6.4,0-11.76,4.19-13.46,10.44c-0.29,1.03-0.59,3.75-0.59,6.47v19.85
						c0,0.37,0.29,0.66,0.66,0.66h3.53c0.37,0,0.66-0.29,0.66-0.66v-12.5l0.22,0.15C144.73,44.83,147.97,46.74,151.79,46.89
						 M151.94,23.51c5.07,0,8.97,4.12,8.97,9.48c0,5.37-3.75,9.34-8.75,9.34c-2.5,0-4.85-0.88-6.54-2.5
						c-1.77-1.69-2.72-4.04-2.72-6.69C142.97,27.77,147.01,23.51,151.94,23.51"/>
					<path class="st0" d="M88.34,46.89c0.22,0,0.44,0,0.66,0c3.68,0,7.06-1.4,9.56-3.97c2.57-2.57,3.97-6.18,3.97-10
						c0-8.01-6.17-14.26-14.04-14.26c-6.4,0-11.76,4.19-13.46,10.44c-0.29,1.03-0.59,3.75-0.59,6.47v19.85
						c0,0.37,0.29,0.66,0.66,0.66h3.53c0.37,0,0.66-0.29,0.66-0.66v-12.5l0.15,0.15C81.28,44.83,84.52,46.74,88.34,46.89
						 M88.49,23.51c5.07,0,8.97,4.12,8.97,9.48c0,5.37-3.75,9.34-8.75,9.34c-2.5,0-4.85-0.88-6.54-2.5
						c-1.76-1.69-2.72-4.04-2.72-6.69C79.52,27.77,83.56,23.51,88.49,23.51"/>
					<path class="st0" d="M169.43,42.48c3.09,2.79,6.4,4.41,10.81,4.41h0.15c7.5-0.07,10.88-4.19,10.88-8.24
						c0-5.59-5.29-7.13-6.91-7.5c-0.52-0.07-1.03-0.22-1.62-0.29c-1.32-0.22-2.65-0.51-3.9-0.88c-0.88-0.22-3.68-1.18-3.68-3.31
						c0-2.35,2.57-3.6,5-3.6c2.06,0,3.75,0.37,5.88,2.06c0.15,0.15,0.44,0.29,0.66,0.29c0.22,0,0.44-0.07,0.66-0.22
						c0.59-0.44,1.69-1.4,2.43-2.13c0.15-0.15,0.22-0.37,0.22-0.59c0-0.29-0.22-0.59-0.37-0.66c-2.87-2.28-5.66-3.24-9.63-3.24l0,0
						c-5.66,0-9.93,3.6-9.93,8.46c0,3.82,3.16,6.54,8.82,7.65l3.53,0.66c2.35,0.44,3.68,1.69,3.6,3.38
						c-0.08,1.69-2.13,3.46-5.52,3.46c-2.79,0-5.22-1.1-7.28-2.94l0,0c-0.15-0.15-0.29-0.29-0.59-0.29c-0.15,0-0.37,0.07-0.51,0.22
						c-0.22,0.15-2.57,2.06-2.87,2.28c-0.15,0.15-0.15,0.22-0.15,0.37C169.14,42.11,169.29,42.33,169.43,42.48"/>
				</g>
				<g>
					<path class="st0" d="M206.49,41.01c1.62,0,2.94,1.32,2.94,2.94c0,1.62-1.32,2.94-2.94,2.94c-1.62,0-2.94-1.32-2.94-2.94
						C203.62,42.33,204.87,41.01,206.49,41.01z M206.49,46.37c1.32,0,2.43-1.1,2.43-2.43s-1.03-2.43-2.43-2.43
						c-1.32,0-2.42,1.1-2.42,2.43C204.14,45.27,205.17,46.37,206.49,46.37z M207,44.39c0.44-0.15,0.66-0.51,0.66-0.88
						c0-0.52-0.29-0.96-0.96-0.96h-1.18v2.94h0.59v-1.03h0.22l0.73,1.03h0.74L207,44.39z M206.64,43.07c0.22,0,0.37,0.22,0.37,0.37
						c0,0.22-0.15,0.37-0.37,0.37h-0.51v-0.73H206.64z"/>
				</g>
			</g>
		</g>
	</g>
	<path class="st1" d="M54.3,55.12c-12.35,12.35-32.35,12.35-44.7,0c-12.35-12.35-12.35-32.35,0-44.7c12.35-12.35,32.35-12.35,44.7,0
		C66.65,22.77,66.65,42.77,54.3,55.12"/>
	<path class="st0" d="M57.17,16.45c0.59,1.99,0.96,4.04,0.96,6.18c0,6.98-3.45,13.09-8.67,16.98C40.4,46.3,27.17,46.3,8.94,52.04
		c5.51,6.62,13.75,10.81,23.01,10.81c16.62,0,30-13.45,30-30C61.95,26.74,60.18,21.16,57.17,16.45"/>
	<path class="st2" d="M49.96,8.73c-5-3.75-11.25-6.03-18.01-6.03c-16.62,0-30,13.45-30,30.07c0,6.69,2.21,12.87,5.88,17.79
		C27.98,44.68,43.93,28.88,49.96,8.73"/>
</g>
</svg>
